<?xml version="1.0" standalone="no"?>
<!DOCTYPE svg PUBLIC "-//W3C//DTD SVG 20010904//EN"
 "http://www.w3.org/TR/2001/REC-SVG-20010904/DTD/svg10.dtd">
<svg version="1.0" xmlns="http://www.w3.org/2000/svg"
 width="480.000000pt" height="480.000000pt" viewBox="0 0 480.000000 480.000000"
 preserveAspectRatio="xMidYMid meet">
<metadata>
Created by potrace 1.11, written by Peter Selinger 2001-2013
</metadata>
<g transform="translate(0.000000,480.000000) scale(0.100000,-0.100000)"
fill="#000000" stroke="none">
<path d="M2975 4100 c-13 -61 -127 -189 -270 -306 -66 -54 -220 -164 -229
-164 -3 0 -6 32 -8 71 l-3 71 -190 -232 c-218 -265 -237 -281 -498 -410 l-152
-75 -161 -268 -160 -269 -79 -39 c-144 -73 -240 -153 -309 -259 -53 -81 -51
-89 34 -105 19 -4 69 -29 111 -56 61 -40 82 -49 103 -43 24 6 37 -4 119 -83
99 -95 198 -173 345 -272 123 -83 134 -86 90 -25 -90 123 -244 438 -220 453 6
3 35 15 66 25 54 18 55 18 98 -2 52 -26 171 -54 207 -50 23 3 18 8 -49 58
l-74 55 100 31 c88 28 102 30 126 17 17 -8 60 -13 115 -12 l88 1 -60 28 -60
28 40 9 c22 4 78 8 125 8 108 -1 163 -27 198 -95 38 -74 28 -159 -52 -433 -73
-252 -102 -324 -147 -361 -28 -24 -85 -46 -119 -46 -8 0 -22 -5 -30 -10 -27
-17 74 -53 135 -48 l53 4 -28 -60 c-15 -34 -32 -78 -39 -99 -11 -32 -16 -37
-34 -31 -20 6 -21 5 -7 -12 14 -18 14 -18 -2 -5 -10 7 -16 17 -13 21 3 5 1 11
-5 15 -5 3 -10 1 -10 -5 0 -6 -21 6 -47 26 -76 61 -80 63 -63 38 8 -11 44 -55
79 -97 64 -76 65 -76 62 -133 -2 -47 1 -60 20 -80 12 -13 27 -24 33 -24 6 0
66 -16 133 -36 141 -42 165 -40 190 12 14 29 15 38 4 55 -13 22 -12 34 16 154
13 56 37 106 124 250 59 99 114 188 122 199 12 17 34 -6 288 -302 l274 -320 3
42 c1 22 -6 181 -16 351 -11 171 -19 310 -18 311 1 1 93 -77 206 -172 112 -95
205 -172 207 -170 2 1 -107 270 -242 597 -135 327 -243 599 -241 605 2 6 81
55 175 110 94 54 169 104 168 109 -2 6 -110 84 -240 175 -130 91 -237 168
-237 171 0 3 61 70 136 148 75 78 134 144 132 146 -3 3 -52 19 -109 36 -57 17
-141 41 -186 55 l-82 24 14 34 c8 19 31 94 50 168 45 163 59 342 32 395 -21
41 -62 88 -97 113 l-28 20 -7 -30z m62 -52 c43 -47 56 -89 55 -171 -3 -156
-34 -274 -108 -417 -75 -144 -127 -198 -324 -337 -96 -68 -184 -129 -195 -135
-11 -6 62 69 161 168 167 164 283 299 269 312 -3 3 -22 -10 -42 -29 -25 -23
-19 -13 18 31 78 91 110 183 42 119 -30 -28 -27 -23 14 28 47 57 53 72 76 170
14 60 28 124 31 143 7 40 5 38 -52 -57 -117 -195 -397 -478 -734 -742 l-67
-52 113 205 112 206 190 151 c104 83 195 156 202 161 6 6 12 7 12 4 0 -4 -75
-84 -166 -179 -151 -156 -244 -270 -232 -282 2 -3 31 27 64 67 32 39 130 139
218 222 87 83 179 178 204 211 48 64 102 172 102 205 0 26 12 25 37 -2z m-801
-620 c-25 -36 -19 -42 20 -19 20 12 38 20 41 18 4 -4 -47 -36 -107 -67 -25
-13 -25 -13 4 26 45 61 48 64 53 64 2 0 -3 -10 -11 -22z m1079 -172 c-16 -7
-235 -100 -485 -206 -250 -106 -459 -196 -464 -201 -5 -4 10 -12 32 -19 36 -9
61 -5 223 35 100 25 183 44 185 43 2 -2 -62 -23 -142 -47 -79 -24 -142 -46
-140 -48 2 -2 226 -42 497 -88 272 -45 485 -83 474 -84 -60 -3 -591 -66 -775
-92 -320 -45 -909 -148 -1060 -185 -62 -16 493 375 863 608 283 178 346 214
432 249 98 39 142 46 280 47 99 1 107 0 80 -12z m-1397 -159 c-14 -13 -29 -38
-33 -55 -5 -25 -22 -41 -87 -82 -44 -28 -91 -58 -105 -68 -26 -16 -26 -16 -14
7 23 42 145 158 201 189 66 38 71 39 38 9z m-78 -10 c0 -2 -25 -21 -55 -41
-65 -46 -122 -106 -171 -182 -60 -93 -49 -53 18 69 l63 115 70 20 c38 11 71
21 73 21 1 1 2 -1 2 -2z m-183 -54 c-18 -32 -243 -413 -255 -430 -8 -13 -10
-23 -6 -22 5 0 36 38 69 84 54 76 72 93 185 169 101 68 275 177 325 204 31 16
-21 -23 -100 -75 -99 -66 -118 -84 -113 -107 2 -11 23 -2 83 33 212 125 235
131 40 10 -66 -42 -202 -137 -303 -212 -101 -75 -195 -140 -210 -144 -26 -6
-26 -6 -11 18 9 13 73 123 144 244 112 192 139 234 153 235 2 0 1 -3 -1 -7z
m531 -167 c45 -7 84 -15 87 -17 2 -2 -69 -51 -158 -109 -395 -255 -666 -435
-712 -473 -27 -23 -46 -36 -42 -30 5 8 -5 9 -35 6 -32 -5 -44 -2 -54 11 -12
17 -14 17 -38 0 -40 -26 -238 -104 -264 -104 l-22 0 19 38 c31 60 103 144 166
191 57 43 211 131 230 131 6 0 -18 -15 -51 -34 -139 -74 -235 -157 -289 -250
-30 -51 -29 -74 0 -29 33 50 109 125 170 168 94 66 119 75 32 11 -45 -33 -77
-81 -77 -115 0 -22 4 -19 29 20 27 44 96 97 171 133 l35 17 -30 -23 c-54 -41
-85 -79 -85 -107 l0 -26 20 32 c37 61 186 141 334 179 111 28 184 72 277 164
49 49 103 115 128 158 26 43 50 72 60 72 9 0 53 -6 99 -14z m-193 -43 c-10
-16 -33 -47 -52 -70 -32 -40 -38 -43 -81 -43 l-47 0 95 70 c52 38 97 69 99 70
2 0 -5 -12 -14 -27z m-382 -268 c18 -12 18 -15 4 -15 -25 0 -48 41 -39 70 7
24 7 23 10 -7 2 -20 12 -39 25 -48z m94 -11 c-3 -3 -12 -4 -19 -1 -8 3 -5 6 6
6 11 1 17 -2 13 -5z m764 -249 c28 -14 85 -59 127 -98 42 -40 132 -121 200
-181 67 -59 122 -110 122 -112 0 -4 -140 112 -333 275 -17 14 -17 13 0 -25 28
-63 22 -234 -11 -354 -102 -367 -156 -623 -156 -738 0 -20 -13 -41 -45 -72
-40 -39 -47 -42 -60 -30 -12 13 -12 29 0 121 19 147 46 257 110 444 72 213
104 339 115 462 19 190 -29 284 -159 319 l-46 13 43 0 c27 1 61 -8 93 -24z
m479 -49 c0 -2 -27 -21 -60 -42 -33 -22 -60 -43 -60 -49 1 -5 21 -25 45 -44
42 -31 47 -32 75 -21 17 7 55 11 89 8 160 -11 358 -228 542 -592 68 -134 70
-139 38 -110 -134 122 -797 730 -811 743 -17 15 -13 19 60 63 81 50 82 50 82
44z m-1596 -37 c-3 -6 -9 -45 -13 -87 -5 -69 -7 -74 -21 -57 -8 11 -10 16 -4
12 8 -4 13 14 16 57 5 60 12 86 24 86 3 0 2 -5 -2 -11z m390 -58 c4 -5 -3 -7
-14 -4 -23 6 -26 13 -6 13 8 0 17 -4 20 -9z m-598 -46 c-11 -8 -27 -15 -35
-14 -9 0 -2 7 14 14 39 18 45 18 21 0z m428 -292 l37 -68 -58 60 c-32 33 -94
99 -138 146 l-80 85 60 20 60 20 41 -97 c23 -54 58 -128 78 -166z m-276 210
c-10 -2 -28 -2 -40 0 -13 2 -5 4 17 4 22 1 32 -1 23 -4z m1662 -148 c13 -14
21 -25 18 -25 -2 0 -15 11 -28 25 -13 14 -21 25 -18 25 2 0 15 -11 28 -25z
m-496 -65 c-33 -112 -98 -289 -127 -350 -40 -80 -92 -120 -163 -126 l-49 -4
39 15 c99 38 137 92 208 299 40 116 88 216 104 216 2 0 -4 -23 -12 -50z m407
4 c97 -47 205 -123 335 -235 l92 -79 6 -62 c11 -126 29 -435 24 -448 -2 -7
-158 182 -345 421 -235 298 -338 436 -330 442 7 4 39 6 73 5 46 -3 81 -14 145
-44z m159 1 c13 -14 21 -25 18 -25 -2 0 -15 11 -28 25 -13 14 -21 25 -18 25 2
0 15 -11 28 -25z m60 -50 c13 -14 21 -25 18 -25 -2 0 -15 11 -28 25 -13 14
-21 25 -18 25 2 0 15 -11 28 -25z m65 -55 c10 -11 16 -20 13 -20 -3 0 -13 9
-23 20 -10 11 -16 20 -13 20 3 0 13 -9 23 -20z m65 -55 c13 -14 21 -25 18 -25
-2 0 -15 11 -28 25 -13 14 -21 25 -18 25 2 0 15 -11 28 -25z m60 -50 c13 -14
21 -25 18 -25 -2 0 -15 11 -28 25 -13 14 -21 25 -18 25 2 0 15 -11 28 -25z
m-977 -290 c-3 -9 -8 -14 -10 -11 -3 3 -2 9 2 15 9 16 15 13 8 -4z m-32 -72
c-12 -20 -14 -14 -5 12 4 9 9 14 11 11 3 -2 0 -13 -6 -23z m-36 -103 c-13 -41
-24 -65 -25 -53 0 21 40 136 46 130 2 -1 -8 -36 -21 -77z m49 -37 c-8 -58 -15
-67 -37 -51 -15 12 -14 16 11 55 15 24 28 43 29 43 2 0 0 -21 -3 -47z m-19
-184 l30 -1 -34 -14 c-29 -13 -36 -13 -56 0 -13 8 -25 28 -27 46 l-5 31 32
-31 c19 -19 42 -30 60 -31z"/>
</g>
</svg>
